<?xml version="1.0" encoding="utf-8" ?>
<svg baseProfile="full" height="1024" version="1.1" width="1024" xmlns="http://www.w3.org/2000/svg" xmlns:ev="http://www.w3.org/2001/xml-events" xmlns:xlink="http://www.w3.org/1999/xlink"><defs /><path d="M 241,53 L 240,54 L 238,54 L 237,55 L 235,55 L 234,56 L 233,56 L 231,58 L 230,58 L 223,65 L 223,66 L 221,68 L 221,69 L 219,71 L 219,72 L 218,73 L 218,74 L 217,75 L 217,76 L 216,77 L 216,79 L 215,80 L 215,81 L 214,82 L 214,84 L 213,85 L 213,87 L 212,88 L 212,90 L 211,91 L 211,94 L 210,95 L 210,98 L 209,99 L 209,103 L 208,104 L 208,108 L 207,109 L 207,113 L 206,114 L 206,120 L 205,121 L 205,128 L 204,129 L 204,137 L 203,138 L 203,148 L 202,149 L 202,164 L 201,165 L 201,240 L 202,241 L 202,254 L 203,255 L 203,269 L 204,270 L 204,281 L 205,282 L 205,292 L 206,293 L 206,301 L 207,302 L 207,311 L 206,312 L 206,313 L 205,314 L 205,316 L 204,317 L 204,318 L 203,319 L 203,320 L 202,321 L 202,323 L 201,324 L 201,325 L 200,326 L 200,327 L 199,328 L 199,330 L 198,331 L 198,332 L 197,333 L 197,334 L 196,335 L 196,337 L 195,338 L 195,339 L 194,340 L 194,341 L 193,342 L 193,344 L 192,345 L 192,346 L 191,347 L 191,349 L 190,350 L 190,351 L 189,352 L 189,354 L 188,355 L 188,356 L 187,357 L 187,359 L 186,360 L 186,361 L 185,362 L 185,364 L 184,365 L 184,367 L 183,368 L 183,369 L 182,370 L 182,372 L 181,373 L 181,375 L 180,376 L 180,377 L 179,378 L 179,380 L 178,381 L 178,383 L 177,384 L 177,386 L 176,387 L 176,389 L 175,390 L 175,392 L 174,393 L 174,395 L 173,396 L 173,398 L 172,399 L 172,401 L 171,402 L 171,404 L 170,405 L 170,407 L 169,408 L 169,411 L 168,412 L 168,414 L 167,415 L 167,418 L 166,419 L 166,422 L 165,423 L 165,425 L 164,426 L 164,429 L 163,430 L 163,434 L 162,435 L 162,438 L 161,439 L 161,444 L 160,445 L 160,451 L 159,452 L 159,463 L 158,464 L 158,473 L 159,474 L 159,486 L 160,487 L 160,493 L 161,494 L 161,498 L 162,499 L 162,502 L 163,503 L 163,506 L 164,507 L 164,510 L 165,511 L 165,513 L 166,514 L 166,516 L 167,517 L 167,519 L 168,520 L 168,522 L 169,523 L 169,525 L 170,526 L 170,527 L 171,528 L 171,530 L 172,531 L 172,532 L 173,533 L 173,535 L 174,536 L 174,537 L 175,538 L 175,539 L 176,540 L 176,541 L 177,542 L 177,543 L 178,544 L 178,545 L 179,546 L 179,547 L 180,548 L 180,549 L 181,550 L 181,551 L 182,552 L 182,553 L 183,554 L 183,555 L 184,556 L 184,557 L 186,559 L 186,560 L 187,561 L 187,562 L 188,563 L 188,564 L 190,566 L 190,567 L 191,568 L 191,569 L 193,571 L 193,572 L 195,574 L 195,575 L 196,576 L 196,577 L 198,579 L 198,580 L 200,582 L 200,583 L 203,586 L 203,587 L 205,589 L 205,590 L 208,593 L 208,594 L 211,597 L 211,598 L 214,601 L 214,602 L 218,606 L 218,607 L 222,611 L 222,612 L 227,617 L 227,618 L 230,621 L 230,622 L 229,623 L 229,628 L 228,629 L 228,633 L 227,634 L 227,638 L 226,639 L 226,643 L 225,644 L 225,648 L 224,649 L 224,653 L 223,654 L 223,659 L 222,660 L 222,665 L 221,666 L 221,681 L 222,682 L 222,684 L 221,685 L 221,686 L 220,687 L 220,688 L 219,689 L 219,690 L 218,691 L 218,692 L 217,693 L 217,694 L 216,695 L 216,696 L 215,697 L 215,698 L 214,699 L 214,700 L 213,701 L 213,703 L 212,704 L 212,705 L 211,706 L 211,707 L 210,708 L 210,709 L 209,710 L 209,711 L 208,712 L 208,713 L 207,714 L 207,716 L 206,717 L 206,718 L 205,719 L 205,720 L 204,721 L 204,723 L 203,724 L 203,725 L 202,726 L 202,728 L 201,729 L 201,730 L 200,731 L 200,732 L 199,733 L 199,735 L 198,736 L 198,738 L 197,739 L 197,740 L 196,741 L 196,743 L 195,744 L 195,746 L 194,747 L 194,748 L 193,749 L 193,751 L 192,752 L 192,754 L 191,755 L 191,757 L 190,758 L 190,759 L 189,760 L 189,762 L 188,763 L 188,765 L 187,766 L 187,768 L 186,769 L 186,771 L 185,772 L 185,774 L 184,775 L 184,778 L 183,779 L 183,781 L 182,782 L 182,784 L 181,785 L 181,788 L 180,789 L 180,791 L 179,792 L 179,794 L 178,795 L 178,798 L 177,799 L 177,801 L 176,802 L 176,805 L 175,806 L 175,809 L 174,810 L 174,812 L 173,813 L 173,816 L 172,817 L 172,820 L 171,821 L 171,824 L 170,825 L 170,828 L 169,829 L 169,832 L 168,833 L 168,836 L 167,837 L 167,840 L 166,841 L 166,845 L 165,846 L 165,849 L 164,850 L 164,854 L 163,855 L 163,858 L 162,859 L 162,863 L 161,864 L 161,868 L 160,869 L 160,873 L 159,874 L 159,879 L 158,880 L 158,884 L 157,885 L 157,890 L 156,891 L 156,896 L 155,897 L 155,902 L 154,903 L 154,909 L 153,910 L 153,916 L 152,917 L 152,924 L 151,925 L 151,932 L 150,933 L 150,942 L 149,943 L 149,953 L 148,954 L 148,960 L 149,961 L 149,963 L 150,964 L 150,965 L 154,969 L 155,969 L 156,970 L 158,970 L 159,971 L 865,971 L 866,970 L 868,970 L 869,969 L 870,969 L 873,966 L 873,965 L 874,964 L 874,963 L 875,962 L 875,947 L 874,946 L 874,937 L 873,936 L 873,928 L 872,927 L 872,920 L 871,919 L 871,913 L 870,912 L 870,906 L 869,905 L 869,899 L 868,898 L 868,893 L 867,892 L 867,887 L 866,886 L 866,881 L 865,880 L 865,876 L 864,875 L 864,871 L 863,870 L 863,866 L 862,865 L 862,861 L 861,860 L 861,856 L 860,855 L 860,851 L 859,850 L 859,846 L 858,845 L 858,842 L 857,841 L 857,838 L 856,837 L 856,833 L 855,832 L 855,829 L 854,828 L 854,825 L 853,824 L 853,821 L 852,820 L 852,817 L 851,816 L 851,813 L 850,812 L 850,810 L 849,809 L 849,806 L 848,805 L 848,803 L 847,802 L 847,799 L 846,798 L 846,795 L 845,794 L 845,792 L 844,791 L 844,789 L 843,788 L 843,786 L 842,785 L 842,782 L 841,781 L 841,779 L 840,778 L 840,776 L 839,775 L 839,773 L 838,772 L 838,770 L 837,769 L 837,767 L 836,766 L 836,764 L 835,763 L 835,761 L 834,760 L 834,758 L 833,757 L 833,756 L 832,755 L 832,753 L 831,752 L 831,750 L 830,749 L 830,747 L 829,746 L 829,745 L 828,744 L 828,742 L 827,741 L 827,739 L 826,738 L 826,737 L 825,736 L 825,735 L 824,734 L 824,732 L 823,731 L 823,730 L 822,729 L 822,727 L 821,726 L 821,725 L 820,724 L 820,722 L 819,721 L 819,720 L 818,719 L 818,718 L 817,717 L 817,716 L 816,715 L 816,713 L 815,712 L 815,711 L 814,710 L 814,709 L 813,708 L 813,707 L 812,706 L 812,705 L 811,704 L 811,703 L 810,702 L 810,701 L 809,700 L 809,698 L 808,697 L 808,696 L 807,695 L 807,694 L 806,693 L 806,692 L 805,691 L 805,690 L 804,689 L 804,688 L 803,687 L 803,686 L 802,685 L 802,684 L 801,683 L 801,682 L 802,681 L 802,677 L 803,676 L 803,671 L 802,670 L 802,663 L 801,662 L 801,656 L 800,655 L 800,651 L 799,650 L 799,645 L 798,644 L 798,641 L 797,640 L 797,636 L 796,635 L 796,632 L 795,631 L 795,628 L 794,627 L 794,624 L 793,623 L 797,619 L 797,618 L 802,613 L 802,612 L 807,607 L 807,606 L 810,603 L 810,602 L 814,598 L 814,597 L 817,594 L 817,593 L 819,591 L 819,590 L 822,587 L 822,586 L 824,584 L 824,583 L 826,581 L 826,580 L 828,578 L 828,577 L 830,575 L 830,574 L 831,573 L 831,572 L 833,570 L 833,569 L 835,567 L 835,566 L 836,565 L 836,564 L 837,563 L 837,562 L 839,560 L 839,559 L 840,558 L 840,557 L 841,556 L 841,555 L 843,553 L 843,552 L 844,551 L 844,550 L 845,549 L 845,548 L 846,547 L 846,546 L 847,545 L 847,544 L 848,543 L 848,542 L 849,541 L 849,539 L 850,538 L 850,537 L 851,536 L 851,535 L 852,534 L 852,532 L 853,531 L 853,530 L 854,529 L 854,527 L 855,526 L 855,525 L 856,524 L 856,522 L 857,521 L 857,519 L 858,518 L 858,516 L 859,515 L 859,513 L 860,512 L 860,510 L 861,509 L 861,506 L 862,505 L 862,502 L 863,501 L 863,497 L 864,496 L 864,492 L 865,491 L 865,484 L 866,483 L 866,452 L 865,451 L 865,445 L 864,444 L 864,439 L 863,438 L 863,435 L 862,434 L 862,430 L 861,429 L 861,426 L 860,425 L 860,422 L 859,421 L 859,419 L 858,418 L 858,415 L 857,414 L 857,412 L 856,411 L 856,408 L 855,407 L 855,405 L 854,404 L 854,402 L 853,401 L 853,399 L 852,398 L 852,396 L 851,395 L 851,393 L 850,392 L 850,390 L 849,389 L 849,387 L 848,386 L 848,384 L 847,383 L 847,381 L 846,380 L 846,379 L 845,378 L 845,376 L 844,375 L 844,373 L 843,372 L 843,370 L 842,369 L 842,368 L 841,367 L 841,365 L 840,364 L 840,363 L 839,362 L 839,360 L 838,359 L 838,358 L 837,357 L 837,355 L 836,354 L 836,353 L 835,352 L 835,350 L 834,349 L 834,348 L 833,347 L 833,345 L 832,344 L 832,343 L 831,342 L 831,341 L 830,340 L 830,338 L 829,337 L 829,336 L 828,335 L 828,334 L 827,333 L 827,331 L 826,330 L 826,329 L 825,328 L 825,327 L 824,326 L 824,325 L 823,324 L 823,322 L 822,321 L 822,320 L 821,319 L 821,318 L 820,317 L 820,315 L 819,314 L 819,313 L 818,312 L 818,311 L 817,310 L 817,309 L 818,308 L 818,300 L 819,299 L 819,289 L 820,288 L 820,278 L 821,277 L 821,265 L 822,264 L 822,252 L 823,251 L 823,233 L 824,232 L 824,177 L 823,176 L 823,156 L 822,155 L 822,143 L 821,142 L 821,133 L 820,132 L 820,125 L 819,124 L 819,118 L 818,117 L 818,112 L 817,111 L 817,107 L 816,106 L 816,102 L 815,101 L 815,97 L 814,96 L 814,93 L 813,92 L 813,90 L 812,89 L 812,87 L 811,86 L 811,84 L 810,83 L 810,81 L 809,80 L 809,78 L 808,77 L 808,76 L 807,75 L 807,74 L 806,73 L 806,72 L 805,71 L 805,70 L 803,68 L 803,67 L 799,63 L 799,62 L 797,60 L 796,60 L 793,57 L 792,57 L 791,56 L 790,56 L 789,55 L 788,55 L 787,54 L 785,54 L 784,53 L 771,53 L 770,54 L 766,54 L 765,55 L 762,55 L 761,56 L 759,56 L 758,57 L 756,57 L 755,58 L 754,58 L 753,59 L 751,59 L 750,60 L 749,60 L 748,61 L 747,61 L 746,62 L 745,62 L 744,63 L 743,63 L 741,65 L 740,65 L 739,66 L 738,66 L 736,68 L 735,68 L 733,70 L 732,70 L 730,72 L 729,72 L 726,75 L 725,75 L 722,78 L 721,78 L 718,81 L 717,81 L 711,87 L 710,87 L 696,101 L 695,101 L 683,113 L 683,114 L 669,128 L 669,129 L 661,137 L 661,138 L 655,144 L 655,145 L 649,151 L 649,152 L 643,158 L 643,159 L 637,165 L 637,166 L 632,171 L 631,170 L 630,170 L 629,169 L 626,169 L 625,168 L 623,168 L 622,167 L 619,167 L 618,166 L 616,166 L 615,165 L 612,165 L 611,164 L 608,164 L 607,163 L 604,163 L 603,162 L 600,162 L 599,161 L 596,161 L 595,160 L 591,160 L 590,159 L 587,159 L 586,158 L 582,158 L 581,157 L 577,157 L 576,156 L 571,156 L 570,155 L 564,155 L 563,154 L 554,154 L 553,153 L 541,153 L 540,152 L 490,152 L 489,153 L 477,153 L 476,154 L 468,154 L 467,155 L 461,155 L 460,156 L 454,156 L 453,157 L 448,157 L 447,158 L 443,158 L 442,159 L 437,159 L 436,160 L 433,160 L 432,161 L 428,161 L 427,162 L 424,162 L 423,163 L 420,163 L 419,164 L 416,164 L 415,165 L 412,165 L 411,166 L 408,166 L 407,167 L 405,167 L 404,168 L 401,168 L 400,169 L 398,169 L 397,170 L 394,170 L 393,171 L 392,171 L 391,170 L 391,169 L 386,164 L 386,163 L 381,158 L 381,157 L 375,151 L 375,150 L 369,144 L 369,143 L 362,136 L 362,135 L 353,126 L 353,125 L 340,112 L 340,111 L 332,103 L 331,103 L 316,88 L 315,88 L 309,82 L 308,82 L 304,78 L 303,78 L 300,75 L 299,75 L 296,72 L 295,72 L 293,70 L 292,70 L 291,69 L 290,69 L 288,67 L 287,67 L 285,65 L 284,65 L 283,64 L 282,64 L 281,63 L 280,63 L 279,62 L 278,62 L 276,60 L 275,60 L 274,59 L 272,59 L 271,58 L 270,58 L 269,57 L 267,57 L 266,56 L 264,56 L 263,55 L 260,55 L 259,54 L 255,54 L 254,53" fill="black" /></svg>